<?xml version="1.0" encoding="UTF-8"?>
<svg width="27px" height="25px" viewBox="0 0 27 25" version="1.1" xmlns="http://www.w3.org/2000/svg" xmlns:xlink="http://www.w3.org/1999/xlink">
    <!-- Generator: sketchtool 49.3 (51167) - http://www.bohemiancoding.com/sketch -->
    <title>05CAA14C-2FFB-40E3-9BE7-49494339C0DC</title>
    <desc>Created with sketchtool.</desc>
    <defs></defs>
    <g id="ChoppingBoard-Prototype" stroke="none" stroke-width="1" fill="none" fill-rule="evenodd">
        <g id="HomeTabScreen" transform="translate(-313.000000, -625.000000)" fill-rule="nonzero" stroke="#8E8E93">
            <g id="bottom_nav" transform="translate(-1.000000, 617.000000)">
                <g id="icon_chat" transform="translate(315.000000, 8.840000)">
                    <path d="M12.4998611,0 C5.6074377,0 0,4.65095117 0,10.3681998 C0,12.5497465 0.807213253,14.6368482 2.33497406,16.4041671 C2.72802524,16.8585673 2.87969023,16.9993037 2.90607882,17.0227154 C3.25357496,17.3334528 3.45135054,17.8889491 3.39662893,18.1786691 L2.5858046,22.4345475 C2.50080555,22.8788381 2.62774858,23.1379633 2.74858057,23.2773694 C2.88524572,23.4340683 3.08274353,23.52 3.3046855,23.52 C3.51273875,23.52 3.73440295,23.4449761 3.96384485,23.2967905 L8.1921312,20.5616098 C8.39212898,20.4323133 8.76323596,20.3378683 9.07323252,20.3378683 C9.15823158,20.3378683 9.23711959,20.3453175 9.30072999,20.3583535 C9.37378474,20.37405 11.106821,20.7353354 12.5001389,20.7353354 C19.3925623,20.7353354 25,16.0843843 25,10.3681998 C24.9997222,4.65095117 19.3922845,0 12.4998611,0 Z M12.4998611,19.8882568 C11.20432,19.8882568 9.50739436,19.5349527 9.49017233,19.5312281 C8.94878946,19.4168299 8.1493539,19.5668777 7.69658115,19.8595242 L3.46857257,22.5944389 C3.4627393,22.5981635 3.45718381,22.601622 3.45162832,22.6050806 C3.45273941,22.5989616 3.45385051,22.5925766 3.45523939,22.5861916 L4.26606371,18.3300472 C4.38189576,17.7208103 4.05689937,16.8928868 3.51190542,16.4060294 C3.51051655,16.4044331 3.37551805,16.2791272 3.0160776,15.8638352 C1.62137087,14.2502888 0.884156843,12.3502148 0.884156843,10.3681998 C0.884434617,5.11758933 6.09493228,0.846812583 12.4998611,0.846812583 C18.9047899,0.846812583 24.1152876,5.11758933 24.1152876,10.3679338 C24.1152876,15.6174801 18.9047899,19.8882568 12.4998611,19.8882568 Z" id="Shape" fill="#000000"></path>
                    <ellipse id="Oval" fill="#8E8E93" cx="19.5" cy="10.29" rx="1.5" ry="1.47"></ellipse>
                    <ellipse id="Oval" fill="#8E8E93" cx="12.5" cy="10.29" rx="1.5" ry="1.47"></ellipse>
                    <ellipse id="Oval" fill="#8E8E93" cx="6.5" cy="10.29" rx="1.5" ry="1.47"></ellipse>
                </g>
            </g>
        </g>
    </g>
</svg>