<?xml version="1.0" encoding="UTF-8"?>
<svg width="28px" height="27px" viewBox="0 0 28 27" version="1.1" xmlns="http://www.w3.org/2000/svg" xmlns:xlink="http://www.w3.org/1999/xlink">
    <!-- Generator: sketchtool 49.3 (51167) - http://www.bohemiancoding.com/sketch -->
    <title>ADFBF470-86E4-4AA7-845B-5BB3BFF37407</title>
    <desc>Created with sketchtool.</desc>
    <defs></defs>
    <g id="ChoppingBoard-Prototype" stroke="none" stroke-width="1" fill="none" fill-rule="evenodd">
        <g id="HomeTabScreen" transform="translate(-128.000000, -623.000000)" fill="#8E8E93" fill-rule="nonzero" stroke="#8E8E93" stroke-width="0.5">
            <g id="bottom_nav" transform="translate(-1.000000, 617.000000)">
                <g id="icon_chef_hat" transform="translate(130.000000, 6.880000)">
                    <path d="M7.80002477,13.2300115 C7.80002477,12.9591661 7.62111232,12.74 7.40001238,12.74 C7.17891245,12.74 7,12.9591661 7,13.2300115 C7,14.5167108 8.15859966,16.2834073 8.29063712,16.4810289 C8.3699496,16.5987658 8.48477457,16.66 8.60038703,16.66 C8.68944951,16.66 8.77929948,16.6236178 8.85388696,16.5489699 C9.02458691,16.377165 9.0491869,16.0685593 8.90934944,15.8589481 C8.48049957,15.2187222 7.80002477,13.9391431 7.80002477,13.2300115 Z" id="Shape"></path>
                    <path d="M17.5999642,12.74 C17.3788513,12.74 17.1999284,12.9591661 17.1999284,13.2300115 C17.1999284,13.9367544 16.5194138,15.2177575 16.0905013,15.8594534 C15.9506557,16.0685593 15.9756322,16.377211 16.1463796,16.5489699 C16.2205964,16.6236178 16.3104516,16.66 16.3998944,16.66 C16.5155136,16.66 16.6299702,16.5987658 16.7092874,16.4810289 C16.8413326,16.2834073 18,14.5167567 18,13.2300115 C18,12.9591661 17.8210771,12.74 17.5999642,12.74 Z" id="Shape"></path>
                    <path d="M12.5,12.74 C12.2236336,12.74 12,12.9591661 12,13.2300115 L12,16.1699885 C12,16.4408339 12.2236336,16.66 12.5,16.66 C12.7763664,16.66 13,16.4408339 13,16.1699885 L13,13.2300115 C12.9999531,12.9591661 12.7763195,12.74 12.5,12.74 Z" id="Shape"></path>
                    <path d="M19.4999723,2.31638338 C19.1418819,2.31638338 18.7676708,2.36280117 18.3790563,2.43354079 C17.0775993,0.946760019 15.1510353,0 13,0 C10.8489647,0 8.92234528,0.946760019 7.62094372,2.4334865 C7.23227382,2.36280117 6.8580627,2.31632909 6.5000277,2.31632909 C2.91585523,2.31638338 0,5.1739276 0,8.68636981 C0,11.0932 1.38494121,13.281188 3.55929892,14.3630211 L3.54777621,23.1144301 C3.54722223,23.746092 3.79761961,24.339914 4.25293288,24.7866648 C4.70880013,25.2340129 5.31413024,25.48 5.95873727,25.48 L20.0435894,25.48 C21.373133,25.48 22.4545505,24.4202086 22.4545505,23.1172531 L22.4545505,14.3545518 C24.6208201,13.2698957 26,11.0852737 26,8.68636981 C25.9999446,5.1739276 23.0840894,2.31638338 19.4999723,2.31638338 Z M21.2726971,23.1173074 C21.2726971,23.7812175 20.7210473,24.3218897 20.043534,24.3218897 L5.95868188,24.3218897 C5.63034001,24.3218897 5.32160892,24.1963174 5.08904959,23.9684631 C4.85704424,23.7405544 4.72896487,23.4379973 4.72951885,23.1156787 L4.73262112,20.8472875 L21.2726971,20.8472875 L21.2726971,23.1173074 Z M21.6385431,13.4531238 C21.6073543,13.4655562 21.5779381,13.4802687 21.5502393,13.4978043 C21.4757848,13.5430277 21.4146258,13.603018 21.3690336,13.671966 C21.3228873,13.7403712 21.2916984,13.81958 21.2790124,13.9043807 C21.273805,13.9366289 21.2720877,13.968877 21.2726417,14.0016681 L21.2726417,19.6890687 L4.73411685,19.6890687 L4.74170633,14.0095401 C4.74226031,13.9778891 4.74054298,13.945641 4.73594498,13.9145329 C4.72325892,13.8268549 4.69035271,13.7454202 4.64243375,13.6747348 C4.59739546,13.6085555 4.53856316,13.5508998 4.46698939,13.5067621 C4.43757324,13.4886836 4.40638437,13.472831 4.37408754,13.4598015 C2.43461586,12.6286245 1.18179804,10.7567118 1.18179804,8.68636981 C1.18179804,5.81237578 3.56738698,3.47454792 6.4999723,3.47454792 C6.61459004,3.47454792 6.7355785,3.48812038 6.85429566,3.49729535 C6.25644424,4.51555505 5.90904558,5.69223242 5.90904558,6.94909584 C5.90904558,7.26918857 6.17334777,7.52820526 6.4999723,7.52820526 C6.82659684,7.52820526 7.09089902,7.26918857 7.09089902,6.94909584 C7.09089902,3.75614917 9.74189809,1.15816454 13,1.15816454 C16.2581019,1.15816454 18.9090456,3.75614917 18.9090456,6.94909584 C18.9090456,7.26918857 19.1733478,7.52820526 19.4999723,7.52820526 C19.8265968,7.52820526 20.090899,7.26918857 20.090899,6.94909584 C20.090899,5.69223242 19.7435004,4.51560934 19.1456489,3.49729535 C19.2643661,3.48812038 19.3853546,3.47454792 19.4999723,3.47454792 C22.432613,3.47454792 24.8181466,5.81243007 24.8181466,8.68636981 C24.8181466,10.7493826 23.5705361,12.6189609 21.6385431,13.4531238 Z" id="Shape"></path>
                </g>
            </g>
        </g>
    </g>
</svg>