<?xml version="1.0" encoding="UTF-8"?>
<svg width="27px" height="20px" viewBox="0 0 27 20" version="1.1" xmlns="http://www.w3.org/2000/svg" xmlns:xlink="http://www.w3.org/1999/xlink">
    <!-- Generator: sketchtool 49.3 (51167) - http://www.bohemiancoding.com/sketch -->
    <title>CBD66DCC-B6AE-4A57-B9DE-8D472775913F</title>
    <desc>Created with sketchtool.</desc>
    <defs></defs>
    <g id="ChoppingBoard-Prototype" stroke="none" stroke-width="1" fill="none" fill-rule="evenodd">
        <g id="HomeTabScreen" transform="translate(-339.000000, -36.000000)" fill="#852540">
            <g id="header" transform="translate(0.000000, -1.000000)">
                <g id="icon_filter" transform="translate(339.000000, 37.000000)">
                    <path d="M0.964285714,3.56311307 L2.70642857,3.56311307 C3.13448559,4.76771679 4.52272278,5.6 6.10392857,5.6 C7.68513436,5.6 9.07337155,4.76771679 9.50142857,3.56311307 L26.0357143,3.56311307 C26.5682746,3.56311307 27,3.22145571 27,2.8 C27,2.37854429 26.5682746,2.03688693 26.0357143,2.03688693 L9.50785714,2.03688693 C9.07980012,0.832283205 7.69156293,0 6.11035714,0 C4.52915135,0 3.14091416,0.832283205 2.71285714,2.03688693 L0.964285714,2.03688693 C0.43172542,2.03688693 0,2.37854429 0,2.8 C0,3.22145571 0.43172542,3.56311307 0.964285714,3.56311307 Z M6.10714286,1.52814489 C6.99474335,1.52814489 7.71428571,2.09757382 7.71428571,2.8 C7.71428571,3.50242618 6.99474335,4.07185511 6.10714286,4.07185511 C5.21954237,4.07185511 4.5,3.50242618 4.5,2.8 C4.5,2.09757382 5.21954237,1.52814489 6.10714286,1.52814489 Z" id="Shape"></path>
                    <path d="M26.0357143,9.7877177 L16.7914286,9.7877177 C16.2653583,8.71026526 14.9576645,8 13.5,8 C12.0423355,8 10.7346417,8.71026526 10.2085714,9.7877177 L0.964285714,9.7877177 C0.43172542,9.7877177 0,10.1298945 0,10.5519909 C0,10.9740874 0.43172542,11.3162642 0.964285714,11.3162642 L10.0285714,11.3162642 C10.3432459,12.6406833 11.8028205,13.6 13.5032143,13.6 C15.2036081,13.6 16.6631827,12.6406833 16.9778571,11.3162642 L26.0357143,11.3162642 C26.5682746,11.3162642 27,10.9740874 27,10.5519909 C27,10.1298945 26.5682746,9.7877177 26.0357143,9.7877177 Z M13.5,12.0805374 C12.6123995,12.0805374 11.8928571,11.5102428 11.8928571,10.8067487 C11.8928571,10.1032546 12.6123995,9.53295995 13.5,9.53295995 C14.3876005,9.53295995 15.1071429,10.1032546 15.1071429,10.8067487 C15.1071429,11.5102428 14.3876005,12.0805374 13.5,12.0805374 Z" id="Shape"></path>
                    <path d="M26.0357143,16.4368869 L24.2935714,16.4368869 C23.8655144,15.2322832 22.4772772,14.4 20.8960714,14.4 C19.3148656,14.4 17.9266284,15.2322832 17.4985714,16.4368869 L0.964285714,16.4368869 C0.43172542,16.4368869 0,16.7785443 0,17.2 C0,17.6214557 0.43172542,17.9631131 0.964285714,17.9631131 L17.4921429,17.9631131 C17.9201999,19.1677168 19.3084371,20 20.8896429,20 C22.4708486,20 23.8590858,19.1677168 24.2871429,17.9631131 L26.0357143,17.9631131 C26.5682746,17.9631131 27,17.6214557 27,17.2 C27,16.7785443 26.5682746,16.4368869 26.0357143,16.4368869 Z M20.8928571,18.4718551 C20.0052567,18.4718551 19.2857143,17.9024262 19.2857143,17.2 C19.2857143,16.4975738 20.0052567,15.9281449 20.8928571,15.9281449 C21.7804576,15.9281449 22.5,16.4975738 22.5,17.2 C22.5,17.9024262 21.7804576,18.4718551 20.8928571,18.4718551 Z" id="Shape"></path>
                </g>
            </g>
        </g>
    </g>
</svg>