<?xml version="1.0" encoding="UTF-8"?>
<svg width="223px" height="223px" viewBox="0 0 223 223" version="1.1" xmlns="http://www.w3.org/2000/svg" xmlns:xlink="http://www.w3.org/1999/xlink">
    <!-- Generator: sketchtool 49.3 (51167) - http://www.bohemiancoding.com/sketch -->
    <title>343323B9-FFC6-44BE-B2A3-0C8917E7C082</title>
    <desc>Created with sketchtool.</desc>
    <defs></defs>
    <g id="ChoppingBoard-Prototype" stroke="none" stroke-width="1" fill="none" fill-rule="evenodd">
        <g id="LoadingScreen" transform="translate(-76.000000, -222.000000)" fill="#FFFDB7">
            <g id="logo" transform="translate(76.000000, 222.000000)">
                <path d="M222.753828,118.968565 L222.303687,118.886295 L222.090292,119.850702 C222.045856,120.12755 221.956932,120.491419 221.823518,120.942319 C221.690105,121.393219 221.512184,121.85521 221.289752,122.328304 C221.040625,122.846022 220.762568,123.361454 220.455574,123.874616 C220.14858,124.387779 219.83044,124.818289 219.501144,125.16616 C219.314236,125.326662 219.131777,125.46707 218.953761,125.587389 C218.775745,125.707707 218.597721,125.790059 218.419685,125.834449 C218.321775,125.896828 218.226084,125.930178 218.132609,125.9345 C218.039135,125.938822 217.952336,125.931989 217.872209,125.914 C217.756474,125.904889 217.654079,125.835503 217.565019,125.70584 C217.475959,125.576178 217.413606,125.439859 217.377957,125.296879 L217.324484,125.082411 C217.30666,125.010921 217.306639,124.934994 217.324422,124.854626 C217.306597,124.783136 217.293219,124.691556 217.284286,124.579882 C217.275353,124.468209 217.279778,124.372189 217.297561,124.291822 C217.270825,124.184587 217.26412,124.081851 217.277447,123.983611 C217.290773,123.885371 217.292981,123.818379 217.284069,123.782635 L219.414035,99.5603206 L209.265988,102.090513 L208.174579,115.233361 C207.097239,114.704666 205.975468,114.414859 204.809234,114.363932 C203.643,114.313004 202.472379,114.434024 201.297336,114.726995 L200.335942,114.966698 C198.938384,115.429049 197.62547,116.079109 196.397162,116.916898 C195.168853,117.754687 194.136441,118.695491 193.299896,119.739338 C192.142968,121.166801 191.326612,122.746622 190.850803,124.478849 C190.374995,126.211077 190.337616,127.881425 190.738665,129.489945 C190.774314,129.632924 190.821092,129.782618 190.879001,129.939031 C190.936909,130.095445 190.988143,130.263011 191.032704,130.441735 C191.335595,131.201489 191.743073,131.925662 192.255152,132.614275 C192.76723,133.302889 193.410588,133.911301 194.185245,134.439529 C195.378403,135.28105 196.651575,135.798873 198.004799,135.993013 C199.358024,136.187153 200.697809,136.137855 202.024193,135.845118 C203.41288,135.498879 204.708001,134.891221 205.909594,134.022126 C207.111187,133.153032 208.076789,132.058037 208.806429,130.737109 C209.590123,131.756654 210.565092,132.36781 211.731368,132.570595 C212.897644,132.77338 214.068286,132.728288 215.243329,132.435317 C218.136796,131.713894 220.285912,130.448873 221.690723,128.640222 C213.445382,182.082668 167.251069,223 111.5,223 C58.1009163,223 13.4692498,185.462225 2.55331141,135.334986 C4.94925444,135.940926 7.40640355,135.929942 9.92479432,135.302036 C13.8797534,134.315954 17.0824365,132.724664 19.5329397,130.528118 C19.8922176,130.206073 20.2365894,129.864407 20.5660552,129.503119 L20.3424716,132.240012 L29.4704924,129.964141 C29.5319461,129.26051 29.5874535,128.566977 29.6370162,127.883519 C29.6865789,127.200061 29.7420862,126.506527 29.8035399,125.802896 C29.8878687,124.783824 29.9701767,123.756666 30.0504662,122.721393 C30.1307558,121.68612 30.2289938,120.654991 30.3451832,119.627974 C30.3523547,119.385278 30.3932925,119.108356 30.4679978,118.797199 C30.5427031,118.486042 30.6352435,118.144631 30.7456219,117.772956 C30.9506751,117.102353 31.2454737,116.452402 31.6300263,115.823084 C32.014579,115.193765 32.4935937,114.807618 33.0670847,114.66463 C33.3538303,114.593137 33.5751718,114.632591 33.7311158,114.782994 C33.8870599,114.933398 34.0013836,115.154402 34.0740904,115.446013 C34.1225616,115.64042 34.1531957,115.865083 34.1659938,116.120007 C34.1787918,116.374932 34.181605,116.623739 34.1744335,116.866435 C34.1829655,117.036385 34.1835324,117.208318 34.1761341,117.382239 C34.1687358,117.556161 34.1493334,117.715866 34.1179263,117.861358 C34.0950512,118.1768 34.0640981,118.459837 34.0250659,118.710477 C33.9860338,118.961116 33.9627056,119.139007 33.9550805,119.244155 C33.8693912,119.850581 33.8117509,120.501628 33.7821578,121.197315 C33.7525647,121.893002 33.7866923,122.572791 33.8845416,123.236702 C33.8849951,123.374251 33.9013787,123.507826 33.9336928,123.637431 L34.0306347,124.026243 C34.1598912,124.544663 34.3488268,125.030987 34.5974472,125.48523 C34.8460676,125.939473 35.1862255,126.353678 35.617931,126.727858 C36.2574109,127.256726 36.9639603,127.579579 37.7376007,127.696428 C38.511241,127.813276 39.2924946,127.824977 40.081385,127.731531 C40.2725487,127.683869 40.4736941,127.642321 40.6848274,127.606887 C40.8959607,127.571454 41.0971061,127.529906 41.2882698,127.482244 C44.2831677,126.735532 46.3928604,125.288928 47.6174111,123.142388 C48.1105299,122.27799 48.547576,121.364794 48.9285512,120.402793 C48.9471336,120.427872 48.9658877,120.4529 48.9848136,120.477878 C49.6372005,121.338899 50.528915,122.079507 51.6599838,122.699725 C53.0536766,123.427968 54.5744152,123.855591 56.2222454,123.982606 C57.8700755,124.10962 59.5181517,123.967637 61.1665235,123.556652 L62.0224046,123.343257 C63.741438,122.810551 65.3597312,122.04271 66.8773327,121.039712 C68.3949341,120.036714 69.6415266,118.858393 70.6171476,117.504712 C71.05456,117.63856 71.5055583,117.725641 71.9701559,117.765958 C72.4347536,117.806275 72.9047914,117.767158 73.3802832,117.648604 C73.8951392,117.520236 74.3593965,117.312544 74.7730576,117.025527 C74.7210847,117.613144 74.6640284,118.192727 74.601888,118.764282 C74.4515717,120.751335 74.2932584,122.740352 74.1269433,124.731394 C73.9606283,126.722435 73.7743323,128.735531 73.5680498,130.770741 L82.5312423,128.484661 C82.6501477,127.189502 82.7630592,125.904406 82.8699802,124.629336 C82.9769012,123.354265 83.0898127,122.06917 83.2087181,120.77401 C83.2324522,120.460265 83.2541789,120.138474 83.2738987,119.808628 C83.2936185,119.478783 83.3313436,119.153003 83.3870752,118.83128 C83.4977173,117.230353 83.6343626,115.631517 83.7970152,114.034723 C83.9596678,112.43793 84.1123116,110.835105 84.2549512,109.2262 C84.2706566,108.880254 84.3262408,108.387559 84.4217052,107.748102 C84.5171697,107.108645 84.6486147,106.443125 84.816044,105.751522 C85.039205,104.738196 85.3624264,103.785443 85.7857179,102.893234 C86.2090095,102.001025 86.7406216,101.47515 87.3805703,101.315593 C87.6365498,101.25177 87.8406037,101.2864 87.9927381,101.419484 C88.1448726,101.552568 88.2530529,101.747912 88.3172823,102.005522 C88.3654544,102.19873 88.4016416,102.412024 88.425845,102.645411 C88.4500483,102.878798 88.4582528,103.11617 88.4504587,103.357535 C88.4266073,103.534497 88.4087483,103.701412 88.3968812,103.858284 C88.3850141,104.015157 88.3671551,104.182072 88.3433037,104.359034 C88.3115408,104.640578 88.273757,104.897967 88.2299512,105.131209 C88.1861453,105.364451 88.1602871,105.53336 88.1523757,105.637942 C88.1364356,105.710322 88.1264879,105.772657 88.1225322,105.824948 C88.1185765,105.877239 88.1086288,105.939573 88.0926887,106.011954 C88.0371917,106.607243 87.9957162,107.224679 87.9682609,107.864281 C87.9408057,108.503883 87.9673384,109.121464 88.0478598,109.717043 C88.0560058,109.886028 88.0761358,110.03492 88.1082506,110.163725 L88.2045943,110.550139 C88.3330532,111.065359 88.5214898,111.548516 88.7699098,111.999624 C89.0183298,112.450732 89.3587226,112.8618 89.7910985,113.232839 C90.4316337,113.757197 91.1539828,114.064482 91.9581676,114.154702 C92.7623524,114.244922 93.5764436,114.238611 94.4004655,114.135768 C94.5924501,114.087901 94.7944382,114.046091 95.0064359,114.010335 C95.2184335,113.97458 95.4204216,113.932769 95.6124062,113.884902 C97.3281345,113.457123 98.75419,112.793678 99.890585,111.894557 C99.8708247,112.088718 99.8504887,112.28197 99.8295769,112.474313 C99.6792606,114.461366 99.5209473,116.450383 99.3546322,118.441425 C99.1883172,120.432466 99.0020212,122.445562 98.7957387,124.480771 L107.758931,122.194692 C107.877837,120.899532 107.990748,119.614437 108.097669,118.339366 C108.20459,117.064296 108.317502,115.7792 108.436407,114.484041 C108.460141,114.170295 108.481868,113.848505 108.501588,113.518659 C108.521307,113.188813 108.559033,112.863034 108.614764,112.541311 C108.725406,110.940384 108.862052,109.341547 109.024704,107.744754 C109.187357,106.147961 109.340001,104.545136 109.48264,102.936231 C109.498346,102.590284 109.55393,102.09759 109.649394,101.458133 C109.744859,100.818676 109.876304,100.153156 110.043733,99.4615527 C110.266894,98.4482267 110.590115,97.4954735 111.013407,96.6032646 C111.436698,95.7110557 111.968311,95.1851806 112.608259,95.0256234 C112.864239,94.9618006 113.068293,94.9964306 113.220427,95.1295145 C113.372561,95.2625985 113.480742,95.4579427 113.544971,95.715553 C113.593143,95.9087607 113.629331,96.1220548 113.653534,96.3554417 C113.677737,96.5888286 113.685942,96.8262008 113.678148,97.0675655 C113.654296,97.2445277 113.636437,97.4114425 113.62457,97.5683151 C113.612703,97.7251877 113.594844,97.8921026 113.570993,98.0690647 C113.53923,98.3506086 113.501446,98.6079976 113.45764,98.8412396 C113.413834,99.0744815 113.387976,99.2433908 113.380065,99.3479726 C113.364124,99.420353 113.354177,99.4826877 113.350221,99.5349786 C113.346265,99.5872694 113.336318,99.6496041 113.320378,99.7219846 C113.264881,100.317274 113.223405,100.93471 113.19595,101.574312 C113.168495,102.213914 113.195027,102.831495 113.275549,103.427074 C113.283695,103.596058 113.303825,103.744951 113.335939,103.873756 L113.432283,104.26017 C113.560742,104.77539 113.749179,105.258547 113.997599,105.709655 C114.246019,106.160763 114.586411,106.57183 115.018787,106.94287 C115.659323,107.467228 116.381672,107.774512 117.185857,107.864733 C117.990041,107.954953 118.804132,107.948642 119.628154,107.845799 C119.820139,107.797932 120.022127,107.756121 120.234125,107.720366 C120.446122,107.684611 120.648111,107.6428 120.840095,107.594933 C123.783859,106.86097 125.874883,105.433252 127.113229,103.311735 C127.489224,102.667587 127.834581,101.99482 128.149303,101.293431 C128.431592,101.929533 128.819144,102.497985 129.311963,102.998796 C130.054343,103.753214 131.097333,104.184982 132.440962,104.294111 C132.937672,104.341088 133.438653,104.335753 133.943919,104.278104 C134.449185,104.220455 134.946424,104.130643 135.435652,104.008665 L135.875954,103.898885 C137.03406,103.541809 138.111283,103.034081 139.107656,102.375688 C139.617315,102.03891 140.08021,101.6691 140.496347,101.266253 L148.29979,99.3206363 C148.308033,99.2185748 148.318233,99.1243608 148.330389,99.0379915 C148.342545,98.9516222 148.356657,98.8731002 148.372726,98.8024231 C148.422187,98.1900542 148.469692,97.5698484 148.515241,96.9417873 C148.560789,96.3137262 148.604382,95.6778285 148.646018,95.0340752 C148.800972,93.6286904 148.99351,92.2389564 149.223638,90.8648315 C149.453766,89.4907066 149.816423,88.1752294 150.311619,86.9183603 C150.67086,86.0620777 151.019477,85.4334659 151.357481,85.0325059 C151.695486,84.6315459 152.023076,84.3915279 152.340262,84.3124445 C152.59401,84.2491779 152.797908,84.2900114 152.951961,84.4349463 C153.106013,84.5798813 153.214338,84.7778833 153.276938,85.0289584 C153.323888,85.2172647 153.352917,85.4350373 153.364027,85.6822827 C153.375137,85.9295281 153.380273,86.1865928 153.379436,86.4534846 C153.355124,86.6262232 153.336785,86.7891361 153.32442,86.9422284 C153.312054,87.0953206 153.309575,87.2542795 153.316981,87.4191097 C153.260532,87.7332025 153.212118,88.0119526 153.171737,88.2553683 C153.131356,88.498784 153.107045,88.67152 153.098801,88.7735815 C153.049758,89.2525045 153.000611,89.7647814 152.951359,90.3104274 C152.902107,90.8560734 152.892503,91.3918259 152.922548,91.9177011 C152.945604,92.1453001 152.972573,92.3885877 153.003454,92.6475711 C153.034335,92.9065545 153.081076,93.1615799 153.143676,93.412655 C153.268876,93.9148052 153.463483,94.3913084 153.727505,94.8421788 C153.991526,95.2930493 154.336899,95.6986275 154.763635,96.0589255 C155.395914,96.5679882 156.11202,96.8727989 156.911972,96.9733667 C157.711925,97.0739345 158.520109,97.0724409 159.336549,96.9688857 C159.52686,96.9214357 159.719125,96.8818324 159.913349,96.8500746 C160.107573,96.8183168 160.299838,96.7787135 160.49015,96.7312635 C163.40826,96.0036968 165.490579,94.5928086 166.737167,92.4985565 C167.118585,91.8577788 167.467263,91.1900585 167.783202,90.4953935 C168.445783,91.5571013 169.331781,92.3496975 170.441201,92.8731924 C172.310323,93.7551627 174.258863,93.9433245 176.286878,93.4376834 C176.508693,93.3823789 176.728501,93.3190431 176.94631,93.247674 C177.164118,93.1763049 177.379921,93.0969047 177.593725,93.0094711 C178.021332,92.8346038 178.450846,92.6336675 178.882281,92.4066561 C179.313716,92.1796447 179.711366,91.9184013 180.075242,91.622918 C180.036964,92.1443586 179.996861,92.7259668 179.954933,93.3677601 C179.913004,94.0095534 179.857235,94.6633195 179.787624,95.329078 C179.585737,96.9492308 179.181536,98.5003618 178.575009,99.9825176 C177.968481,101.464673 176.837348,102.395089 175.181575,102.773794 C175.118199,102.789595 175.0449,102.799339 174.961675,102.803026 C174.878451,102.806713 174.801146,102.800393 174.72976,102.784065 C174.634697,102.807767 174.543552,102.813429 174.456322,102.801051 C174.369091,102.788674 174.289785,102.774321 174.218398,102.757993 C175.001871,102.255514 175.517549,101.657709 175.765448,100.964562 C176.013347,100.271414 176.057189,99.6035588 175.896975,98.9609756 L175.860927,98.8163951 C175.60494,97.9246794 175.036266,97.1962541 174.15489,96.6310976 C173.273513,96.0659411 172.262461,95.9255765 171.121702,96.2099996 L170.741451,96.3048068 C170.646388,96.3285088 170.569172,96.3562922 170.509802,96.3881581 C170.450432,96.420024 170.38906,96.4438572 170.325685,96.4596585 C169.296366,96.9210552 168.624165,97.5322909 168.309063,98.2933837 C167.993961,99.0544764 167.9207,99.8405758 168.08928,100.651705 C168.129334,100.812351 168.175306,100.962987 168.227198,101.103618 C168.27909,101.244249 168.340905,101.390935 168.412647,101.54368 C168.723644,102.251048 169.196989,102.900864 169.832697,103.493146 C170.468404,104.085428 171.202726,104.499545 172.035683,104.735509 C172.948037,105.01993 173.899632,105.158057 174.890495,105.149892 C175.881358,105.141727 176.867935,105.015187 177.850255,104.770267 C178.135445,104.699161 178.426549,104.618049 178.723578,104.526928 C179.020606,104.435807 179.323549,104.334681 179.632416,104.223545 C181.960577,103.301805 184.033697,101.863518 185.851836,99.9086409 C187.669976,97.953764 188.671076,95.7931092 188.855167,93.4266117 C189.000979,91.5815547 189.148792,89.7445576 189.29861,87.9155653 C189.448427,86.0865729 189.612084,84.2456255 189.789584,82.392668 C189.943407,80.5797402 190.093222,78.7507752 190.239035,76.9057183 L190.67647,71.3705752 L181.597976,73.6340978 L181.505577,74.680924 C180.577201,74.3322444 179.635354,74.1319676 178.680006,74.0800878 C177.724658,74.0282079 176.787526,74.1168259 175.868581,74.3459445 C175.710143,74.3854478 175.545787,74.4349577 175.37551,74.4944758 C175.205233,74.5539939 175.040877,74.6035038 174.882438,74.643007 C172.253066,75.5715949 170.063832,77.3203715 168.31467,79.8893895 C166.879477,81.997278 166.267676,84.1812875 166.479258,86.4414627 C166.460022,86.5102792 166.439195,86.5808266 166.416776,86.653105 C166.304715,87.0143988 166.160937,87.3835955 165.985438,87.760706 C165.769977,88.2477863 165.512916,88.7368986 165.214246,89.2280576 C164.915576,89.7192166 164.607234,90.1377774 164.289211,90.4837524 C164.122375,90.6253556 163.959558,90.7492876 163.800755,90.8555522 C163.641953,90.9618168 163.467399,91.038673 163.277087,91.086123 C163.055057,91.1414813 162.882773,91.1261005 162.76023,91.0399802 C162.637686,90.9538598 162.556854,90.8323405 162.517728,90.6754186 C162.502078,90.6126498 162.490446,90.532213 162.48283,90.4341057 C162.475214,90.3359983 162.479441,90.2516074 162.495509,90.1809303 C162.472034,90.0867771 162.466375,89.9965173 162.478531,89.910148 C162.490687,89.8237787 162.504799,89.7452566 162.520868,89.6745795 C162.521286,89.5411337 162.525617,89.4233817 162.533861,89.3213203 C162.542104,89.2192588 162.55426,89.1328908 162.570329,89.0622137 C162.57941,88.6932604 162.606305,88.3282046 162.651017,87.9670352 C162.695729,87.6058658 162.742396,87.2525479 162.791021,86.9070707 C162.800101,86.5381174 162.826997,86.1730616 162.871709,85.8118922 C162.916421,85.4507228 162.947229,85.101359 162.964135,84.7637901 C162.988447,84.5910515 162.998856,84.4301156 162.995362,84.2809775 C162.991868,84.1318395 162.986418,83.9748577 162.979012,83.8100274 C162.97943,83.6765815 162.968007,83.5294228 162.944741,83.3685467 C162.921475,83.2076706 162.894193,83.0644659 162.862893,82.9389284 C162.722043,82.3740094 162.489953,81.8485156 162.166616,81.362431 C161.84328,80.8763465 161.420672,80.4650238 160.89878,80.1284508 C160.092258,79.596161 159.23157,79.2857303 158.316689,79.1971495 C157.401809,79.1085686 156.484463,79.178948 155.564624,79.4082897 L155.088848,79.5269141 C154.930255,79.5664557 154.775576,79.6216888 154.624808,79.6926148 C153.696726,80.024018 152.817876,80.4514827 151.988234,80.9750219 C151.158592,81.498561 150.42988,82.0552666 149.802078,82.6451553 L149.826808,82.3389723 C149.835052,82.2369109 149.855242,82.1152048 149.887379,81.9738506 L149.93684,81.3614848 L141.087397,83.5678987 C140.792721,86.574883 140.511953,89.570022 140.245083,92.5534057 C140.124071,93.9062247 140.003461,95.2606478 139.883254,96.6166833 C139.616474,96.9855759 139.34594,97.2939863 139.071646,97.5419209 C138.732391,97.8485736 138.432308,98.0344246 138.171387,98.0994796 C137.82064,98.2210948 137.555847,98.2358696 137.377001,98.1438043 C137.198154,98.0517391 137.084674,97.9092147 137.036557,97.7162267 C136.98844,97.5232387 136.966923,97.2979988 136.972007,97.0405001 C136.97709,96.7830014 137.000486,96.5294818 137.042195,96.2799335 C137.136853,94.9922587 137.241669,93.7106113 137.356644,92.4349528 C137.47162,91.1592943 137.596753,89.8896631 137.732046,88.6260211 C137.783385,87.998266 137.840872,87.3604463 137.904508,86.712543 C137.968145,86.0646396 138.025632,85.4268199 138.076971,84.7990648 L128.488166,87.1898224 C128.335223,88.7995067 128.188431,90.3990928 128.047786,91.9886288 C127.940982,93.195702 127.830633,94.4085707 127.716738,95.6272561 L127.106543,95.5151423 C127.122601,95.5795449 127.122659,95.6479353 127.106719,95.7203158 L126.963259,96.3717364 C126.923468,96.621079 126.847724,96.9306857 126.736027,97.3005657 C126.624329,97.6704457 126.48465,98.0643983 126.316986,98.4824353 C126.109413,99.0130319 125.843842,99.5495314 125.520264,100.09195 C125.196686,100.634368 124.835006,101.05802 124.435214,101.362918 C124.299313,101.499411 124.163384,101.601707 124.027425,101.669808 C123.891465,101.73791 123.743494,101.791905 123.583506,101.831794 C123.359524,101.887639 123.193489,101.869182 123.085395,101.776422 C122.977301,101.683662 122.903183,101.556781 122.86304,101.395774 C122.838954,101.299171 122.822867,101.200574 122.81478,101.099981 C122.806693,100.999388 122.806605,100.896802 122.814516,100.792221 C122.822428,100.687639 122.824347,100.593103 122.820274,100.508611 C122.816201,100.424119 122.822134,100.345684 122.838074,100.273304 C122.845986,100.168722 122.857911,100.080242 122.873851,100.007862 L122.921671,99.7907215 C122.929465,99.5493567 122.945259,99.3060012 122.969051,99.0606475 C122.992844,98.8152939 123.008637,98.5719383 123.016431,98.3305736 C123.016314,98.1937906 123.026203,98.0630654 123.046099,97.9383941 C123.065995,97.8137228 123.079898,97.699098 123.08781,97.5945163 C123.127484,97.2083907 123.161165,96.8323155 123.188855,96.4662795 C123.216545,96.1002435 123.238242,95.7442576 123.253948,95.3983111 C123.301651,95.0443868 123.311364,94.7084902 123.283087,94.3906112 C123.254811,94.0727322 123.20053,93.752791 123.120244,93.4307781 C122.983756,92.8833562 122.761286,92.3659315 122.452827,91.8784885 C122.144368,91.3910454 121.72596,90.9737772 121.197592,90.6266713 C120.41301,90.0698223 119.55063,89.7461475 118.610427,89.6556374 C117.670223,89.5651273 116.736173,89.6355501 115.808247,89.8669079 L115.280292,89.9985419 C114.336427,90.3022802 113.428674,90.7167223 112.557008,91.2418806 C111.685342,91.767039 110.929722,92.314563 110.290125,92.8844692 L110.872665,86.4287921 L101.945425,88.6546029 C101.66794,91.6310481 101.400466,94.6135044 101.142994,97.6020613 C100.894055,100.491577 100.635765,103.375389 100.368117,106.253579 C100.343298,106.296322 100.318117,106.339102 100.292575,106.381919 C99.9689967,106.924338 99.607317,107.347989 99.207525,107.652887 C99.0716239,107.78938 98.9356955,107.891676 98.7997357,107.959778 C98.663776,108.027879 98.5158047,108.081874 98.3558175,108.121763 C98.1318355,108.177608 97.9658,108.159151 97.857706,108.066391 C97.749612,107.973631 97.6754944,107.84675 97.635351,107.685744 C97.611265,107.58914 97.5951785,107.490543 97.5870912,107.38995 C97.5790039,107.289357 97.5789159,107.186772 97.5868273,107.08219 C97.5947387,106.977608 97.5966578,106.883073 97.5925849,106.798581 C97.5885119,106.714088 97.5944453,106.635653 97.6103854,106.563273 C97.6182968,106.458691 97.6302223,106.370211 97.6461624,106.297831 L97.6939824,106.080691 C97.7017764,105.839326 97.7175697,105.59597 97.7413625,105.350617 C97.7651553,105.105263 97.7809485,104.861908 97.7887426,104.620543 C97.7886253,104.48376 97.7985144,104.353035 97.8184101,104.228363 C97.8383059,104.103692 97.8522092,103.989067 97.8601206,103.884486 C97.8997949,103.49836 97.9334764,103.122285 97.9611662,102.756249 C97.9888561,102.390213 98.0105534,102.034227 98.0262589,101.68828 C98.0739618,101.334356 98.0836749,100.998459 98.0553986,100.68058 C98.0271223,100.362701 97.9728415,100.04276 97.8925547,99.7207474 C97.7560671,99.1733255 97.533597,98.6559008 97.2251379,98.1684578 C96.9166787,97.6810147 96.4982713,97.2637465 95.9699031,96.9166406 C95.1853208,96.3597916 94.322941,96.0361168 93.3827378,95.9456067 C92.4425346,95.8550966 91.5084842,95.9255194 90.5805586,96.1568772 L90.0526036,96.2885112 C89.1087379,96.5922495 88.2009856,97.0066916 87.3293194,97.5318499 C86.4576533,98.0570083 85.7020331,98.6045323 85.0624363,99.1744385 L85.6449759,92.7187614 L76.7177364,94.9445722 C76.4402514,97.9210174 76.1727769,100.903474 75.915305,103.892031 C75.7949745,105.288744 75.6724593,106.684125 75.5477585,108.078182 L75.4861593,108.066643 C75.3620098,108.514008 75.2435299,108.916578 75.130716,109.274365 C75.017902,109.632152 74.8908353,109.932762 74.7495119,110.176204 C74.530264,110.64728 74.276622,111.014149 73.9885783,111.276822 C73.7005346,111.539494 73.3427674,111.758822 72.9152661,111.934812 C72.9443173,111.511157 72.941669,111.095412 72.9073212,110.687565 C72.8729734,110.279717 72.8069271,109.879779 72.7091804,109.487738 C72.440377,108.409626 71.9598665,107.427692 71.2676345,106.541905 C70.5754026,105.656118 69.7036103,104.927893 68.6522315,104.357208 C67.4333271,103.654787 66.1150005,103.228748 64.6972122,103.079078 C63.2794238,102.929409 61.8727213,102.95916 60.4770624,103.168333 C60.2234667,103.231561 59.9757632,103.284646 59.7339445,103.327587 C59.4921258,103.370529 59.2444223,103.423613 58.9908267,103.486842 C57.3107554,103.90573 55.7393487,104.55778 54.2765592,105.443008 C52.8137697,106.328237 51.554297,107.353618 50.4981032,108.519182 C49.2842949,109.862848 48.4087411,111.347714 47.8714153,112.973826 C47.5203723,114.03619 47.3657029,115.079204 47.4074064,116.102882 L47.397061,116.150807 C47.3661074,116.433848 47.2954425,116.7612 47.1850641,117.132875 C47.0746857,117.50455 46.9483788,117.88019 46.8061398,118.259809 C46.5687725,118.800807 46.2955093,119.33354 45.9863422,119.858025 C45.6771751,120.382509 45.3278473,120.813755 44.9383484,121.151776 C44.8032809,121.288699 44.6621566,121.401318 44.5149713,121.489639 C44.367786,121.577959 44.2145441,121.641978 44.0552411,121.681697 C43.8322168,121.737303 43.6667439,121.718334 43.5588175,121.624789 C43.4508911,121.531244 43.3767327,121.403471 43.33634,121.241464 C43.320183,121.176662 43.307952,121.093674 43.2996467,120.992499 C43.2913414,120.891323 43.2791105,120.808336 43.2629534,120.743533 C43.2624999,120.605985 43.2660856,120.484638 43.2737106,120.379491 L43.2965856,120.06405 C43.3042106,119.958903 43.3158747,119.869958 43.3315783,119.797212 L43.3786887,119.578974 C43.3854068,119.19873 43.4021093,118.824605 43.4287969,118.456589 C43.4554845,118.088573 43.4921563,117.726677 43.5388135,117.37089 C43.5773922,116.982702 43.6100248,116.604605 43.6367124,116.23659 C43.6634,115.868574 43.6841417,115.51065 43.6989383,115.162806 C43.7455955,114.807019 43.7544464,114.469267 43.7254913,114.14954 C43.6965361,113.829813 43.6416668,113.507948 43.5608815,113.183936 C43.4235465,112.633115 43.2006178,112.112248 42.8920886,111.621319 C42.5835595,111.130389 42.1656575,110.709757 41.6383701,110.359408 C40.8552907,109.797513 39.9972922,109.478005 39.0643488,109.400875 C38.1314054,109.323745 37.1989295,109.384163 36.2668931,109.582131 C36.1075901,109.621849 35.9423439,109.671654 35.7711498,109.731545 C35.5999557,109.791436 35.4347096,109.84124 35.2754065,109.880959 C34.4394054,110.192644 33.6495277,110.587468 32.9057495,111.065444 C32.1619713,111.543419 31.4999875,112.044016 30.9197784,112.567248 L31.8859691,100.969319 L22.7101576,103.257106 L21.089445,123.096291 C20.5658456,124.45861 19.7657335,125.773754 18.6890974,127.041745 C17.2225843,128.768907 15.5167957,129.943895 13.5716804,130.566742 C13.484087,130.62305 13.3844758,130.66512 13.2728439,130.692953 L12.9140288,130.782416 C12.4356064,130.9017 11.955051,130.97843 11.4723482,131.01261 C10.9896455,131.046789 10.5048099,131.038416 10.0178269,130.98749 C8.6606534,130.843307 7.62138755,130.309653 6.89999814,129.386513 C6.17860872,128.463372 5.6682368,127.401464 5.36886707,126.200758 L5.23536502,125.66531 C5.04070979,124.748715 4.94174053,123.808278 4.93845429,122.843969 C4.93516805,121.879661 4.97210188,121.008743 5.04925691,120.231192 C5.12688141,119.591398 5.22819077,118.876772 5.35318805,118.087292 C5.47818533,117.297812 5.64304867,116.498403 5.84778303,115.689043 C6.3519973,113.770947 7.0999266,111.947222 8.09159335,110.217811 C9.08326011,108.488399 10.4402336,107.408999 12.1625545,106.979576 C12.8004511,106.82053 13.3790644,106.831373 13.8984117,107.012105 C14.417759,107.192837 14.7462019,107.559036 14.8837501,108.110711 C14.9161144,108.240518 14.9384819,108.364197 14.9508532,108.481753 C14.9632246,108.59931 14.9536977,108.730942 14.9222723,108.876652 C14.8294046,109.727059 14.5943323,110.414717 14.2170482,110.939645 C13.8397642,111.464573 13.3766817,111.985035 12.8277869,112.501048 C12.7401934,112.557356 12.6625977,112.619788 12.5949972,112.688346 C12.5273967,112.756904 12.4498009,112.819336 12.3622075,112.875645 C12.5221511,112.973642 12.6800696,113.063524 12.8359677,113.145296 C12.9918658,113.227067 13.1457388,113.300724 13.2975914,113.36627 C13.9530785,113.685402 14.6222456,113.923563 15.3051126,114.080759 C15.9879796,114.237956 16.7240419,114.200925 17.5133216,113.969667 C18.8767083,113.595267 19.8655781,112.805838 20.4799608,111.601355 C21.0943435,110.396872 21.2518477,109.194296 20.9524779,107.993589 C20.8068386,107.409462 20.551594,106.861289 20.1867364,106.349053 C19.8218787,105.836817 19.3276612,105.417163 18.7040688,105.090078 C17.488779,104.427956 16.2047067,104.067361 14.8518136,104.008284 C13.4989204,103.949206 12.1565132,104.03401 10.8245519,104.262699 C10.4337229,104.325675 10.052896,104.394774 9.68205991,104.47 C9.31122382,104.545225 8.93444243,104.63055 8.55170445,104.725977 C6.22338175,105.306493 4.05573938,106.191631 2.04871231,107.381416 C1.33852327,107.802423 0.666900483,108.250497 0.0338416956,108.725641 C1.50637872,48.4278407 50.8477252,0 111.5,0 C173.07975,0 223,49.9202504 223,111.5 C223,114.009755 222.917079,116.500143 222.753828,118.968574 Z M159.997413,133.787502 L159.947633,134.001864 C159.929422,134.080284 159.928988,134.154271 159.94633,134.223827 L159.837066,134.694344 C159.791104,134.964382 159.700269,135.319482 159.564556,135.759656 C159.428843,136.19983 159.248692,136.651078 159.024097,137.113413 C158.808173,137.610526 158.552364,138.099107 158.256663,138.579171 C157.960962,139.059234 157.647923,139.469736 157.317538,139.810689 C157.130233,139.968208 156.949652,140.114815 156.775788,140.250514 C156.601924,140.386212 156.408336,140.480653 156.195018,140.533839 C156.09703,140.59521 156.001429,140.628281 155.908211,140.633053 C155.814993,140.637825 155.728496,140.631687 155.648719,140.614637 C155.497836,140.615317 155.37839,140.55275 155.290376,140.426936 C155.202362,140.301121 155.141014,140.16866 155.10633,140.029549 L155.054303,139.820883 C155.036961,139.751328 155.037395,139.677341 155.055606,139.598921 C155.029593,139.494588 155.019189,139.377129 155.024393,139.246543 C155.029597,139.115956 155.041305,139.011454 155.059515,138.933034 C155.033502,138.828701 155.031769,138.74602 155.054315,138.684989 C155.076861,138.623958 155.083799,138.576054 155.075128,138.541276 C155.180934,137.148126 155.297794,135.761474 155.425712,134.38128 C155.553631,133.001086 155.692603,131.627391 155.842633,130.260153 C155.899871,129.580967 155.963829,128.89088 156.034509,128.189872 C156.105188,127.488865 156.169146,126.798778 156.226385,126.119591 L145.827185,128.712403 L145.684089,130.410361 C144.657396,129.92755 143.569583,129.653919 142.420618,129.589461 C141.271652,129.525002 140.128339,129.634601 138.990643,129.918261 L138.537345,130.031281 C138.377356,130.07117 138.230594,130.126232 138.097053,130.196467 C136.692275,130.620597 135.377264,131.253214 134.151981,132.094338 C132.926697,132.935462 131.893935,133.867098 131.053661,134.889276 C129.954109,136.234678 129.155248,137.763667 128.657056,139.476289 C128.158864,141.188911 128.109204,142.845087 128.508074,144.444866 C128.541586,144.579277 128.578342,144.712472 128.61834,144.84445 C128.491887,145.013266 128.358312,145.160633 128.217616,145.286551 C127.892447,145.577566 127.489195,145.821247 127.007849,146.017602 C127.042975,145.550792 127.042439,145.092879 127.006242,144.643851 C126.970044,144.194824 126.898186,143.754694 126.790664,143.323449 C126.494981,142.137527 125.960872,141.058782 125.188322,140.087182 C124.415772,139.115583 123.440555,138.318586 122.262641,137.696168 C120.897279,136.92963 119.418591,136.4681 117.826531,136.311564 C116.234472,136.155029 114.653816,136.196054 113.084514,136.43464 C112.799219,136.505772 112.520603,136.565696 112.248659,136.614414 C111.976715,136.663132 111.698099,136.723056 111.412804,136.794188 C109.522724,137.265438 107.753364,137.992868 106.104671,138.976499 C104.455979,139.96013 103.034897,141.096941 101.841385,142.386964 C100.469741,143.874086 99.4773104,145.514749 98.8640625,147.309005 C98.2508145,149.103261 98.1547547,150.844883 98.5758801,152.533925 C98.8446835,153.612037 99.3430418,154.623354 100.07097,155.567908 C100.798898,156.512462 101.796426,157.322981 103.063583,157.999491 C104.625175,158.793446 106.331271,159.255532 108.181924,159.385764 C110.032576,159.515996 111.885084,159.349935 113.739502,158.887577 L114.702368,158.647507 C116.636892,158.050663 118.45961,157.195418 120.170577,156.081747 C121.881544,154.968076 123.289052,153.662883 124.393142,152.166128 C124.883805,152.310989 125.390007,152.404259 125.911763,152.445941 C126.433519,152.487622 126.961854,152.441777 127.496782,152.308405 C128.816272,151.979419 129.843151,151.198545 130.57745,149.965759 C130.813536,149.569403 131.031408,149.166739 131.231065,148.757766 C131.386,148.885068 131.547503,149.009369 131.715575,149.13067 C132.873203,149.987173 134.086097,150.497426 135.354294,150.661446 C136.62249,150.825466 137.883083,150.769739 139.136109,150.494265 L139.642736,150.367948 C139.802725,150.328058 139.949487,150.272997 140.083028,150.202762 C141.336923,149.779311 142.509941,149.145158 143.602118,148.300281 C144.694294,147.455405 145.611946,146.47859 146.3551,145.369808 C147.121645,146.323818 148.070064,146.909248 149.200384,147.126114 C150.330704,147.34298 151.46903,147.326973 152.615397,147.078091 L152.882044,147.011609 C156.295131,146.16063 158.689513,144.59399 160.065261,142.311641 C161.441009,140.029292 162.44409,137.350445 163.074536,134.275017 L160.558788,133.858701 L162.802765,134.143304 C162.831035,133.951557 162.872875,133.737959 162.928287,133.502505 C162.983699,133.267051 163.043445,133.048989 163.107528,132.848313 C163.364987,131.897567 163.760791,130.96775 164.294953,130.058834 C164.829115,129.149918 165.548743,128.527224 166.45386,128.190734 C166.839129,128.057736 167.199136,128.01415 167.533893,128.059975 C167.86865,128.1058 168.083716,128.319987 168.179098,128.702543 L168.244131,128.963375 C168.270144,129.067708 168.26468,129.198358 168.227739,129.355327 L166.786599,142.569609 L176.724576,140.091793 L176.84217,138.73265 C176.918309,138.122631 176.97654,137.517085 177.016867,136.915994 C177.057193,136.314904 177.111089,135.69197 177.178557,135.047172 C177.30595,133.57476 177.509301,132.1019 177.788616,130.628549 C178.067931,129.155198 178.502933,127.772337 179.093635,126.479927 C179.421591,125.659363 179.759535,124.993312 180.107476,124.481754 C180.455418,123.970195 180.808447,123.669775 181.166574,123.580484 C181.372779,123.492131 181.575967,123.506114 181.776144,123.622434 C181.976321,123.738753 182.169146,123.940016 182.354623,124.226228 C182.909929,125.232907 183.588489,125.894855 184.390326,126.212091 C185.192162,126.529327 185.969102,126.594188 186.721169,126.406677 L186.882326,126.366496 C187.849269,126.12541 188.642407,125.530562 189.261765,124.581935 C189.881123,123.633307 190.030385,122.515621 189.709555,121.228842 L189.566483,120.655011 C189.514456,120.446345 189.426618,120.24661 189.302966,120.055801 C189.074133,119.595699 188.769061,119.173083 188.387742,118.78794 C188.006423,118.402797 187.543968,118.111769 187.000363,117.914847 C186.465429,117.752704 185.920986,117.666813 185.367017,117.657174 C184.813049,117.647535 184.267477,117.709683 183.730286,117.84362 C183.336347,117.94184 182.939963,118.068374 182.541123,118.223225 C182.142284,118.378077 181.745336,118.57863 181.350268,118.82489 C180.488506,119.33527 179.679629,119.943276 178.923613,120.648929 C178.167597,121.354581 177.465028,122.083839 176.815885,122.836724 C175.919795,121.988892 174.862757,121.449014 173.644739,121.217074 C172.426721,120.985134 171.218149,120.981716 170.018987,121.206821 C169.723815,121.243476 169.441935,121.295287 169.173339,121.362256 C168.904744,121.429224 168.649441,121.511348 168.407423,121.608629 C165.720342,122.426353 163.708847,124.008346 162.372879,126.354656 C161.036911,128.700966 160.198191,131.172608 159.856694,133.769655 L159.997413,133.787502 Z M97.5,21 C93.9101491,21 91,23.9101491 91,27.5 C91,31.0898509 93.9101491,34 97.5,34 L126.5,34 C130.089851,34 133,31.0898509 133,27.5 C133,23.9101491 130.089851,21 126.5,21 L97.5,21 Z M139.053095,79.6889033 C139.05483,79.5548719 139.050251,79.4307666 139.039359,79.3165835 C139.028466,79.2024005 139.01126,79.0981431 138.98774,79.0038083 C138.807417,78.280575 138.364956,77.7396089 137.660343,77.3808938 C136.95573,77.0221787 136.220651,76.7879648 135.455084,76.6782449 C135.381053,76.6633032 135.290475,76.6524876 135.183348,76.6457976 L134.86197,76.6257277 C134.507494,76.6139093 134.142357,76.6298002 133.766546,76.6734008 C133.390735,76.7170015 133.02081,76.7841849 132.656759,76.8749529 L132.110685,77.0111043 C131.332073,77.2720335 130.605734,77.6368258 129.931645,78.105492 C129.257557,78.5741583 128.759412,79.1492486 128.437197,79.8307803 C128.3266,80.092153 128.25302,80.3609924 128.216454,80.6373068 C128.179888,80.9136211 128.192966,81.177554 128.255686,81.4291134 C128.365448,81.8693424 128.597354,82.2707604 128.951412,82.6333796 C129.305469,82.9959988 129.736813,83.2808931 130.245456,83.4880711 C130.910001,83.7565772 131.627874,83.8865338 132.399096,83.8779448 C133.170318,83.8693558 133.919969,83.7742947 134.64807,83.5927586 C134.912835,83.5267455 135.181949,83.4429482 135.45542,83.3413643 C135.728892,83.2397805 135.994086,83.140261 136.25101,83.042803 C136.342457,82.9866031 136.435862,82.9382652 136.531228,82.8977878 C136.626595,82.8573104 136.736548,82.8048468 136.86109,82.7403953 C137.409768,82.4031962 137.899864,81.9720592 138.331391,81.4469714 C138.762918,80.9218836 139.003484,80.3358667 139.053095,79.6889033 Z M94.3485129,135.578882 C93.9888975,134.136543 93.2158864,133.103694 92.0294563,132.480303 C90.8430263,131.856913 89.5913478,131.460452 88.2743831,131.290908 C88.1505121,131.245192 88.031138,131.217506 87.9162574,131.207849 L87.5716172,131.178878 C85.6892396,130.997107 83.4613356,131.083418 80.8878381,131.437813 C78.3143406,131.792208 75.4745773,132.356617 72.3684629,133.131059 C69.332942,133.887899 66.4377336,134.906576 63.6827507,136.187121 C60.9277678,137.467666 58.4715937,138.893922 56.3141548,140.465932 C54.1657063,142.074001 52.3887314,143.780933 50.9831767,145.586778 C49.577622,147.392623 48.7241736,149.194838 48.4228058,150.993479 C48.3195747,151.632018 48.2779474,152.216888 48.2979225,152.748108 C48.3178976,153.279328 48.3908168,153.79734 48.5166822,154.302158 C48.6245668,154.73486 48.7698275,155.129511 48.9524684,155.486124 C49.1351093,155.842736 49.337477,156.1657 49.5595775,156.455024 C50.2521853,157.278138 51.0782278,157.809447 52.0377297,158.048967 C52.9972317,158.288486 53.9358264,158.29384 54.853542,158.065028 L55.5418253,157.89342 C56.3003731,157.627692 57.0118769,157.210923 57.6763581,156.643099 C58.3408393,156.075275 58.8482264,155.441301 59.1985348,154.741159 C59.2947699,154.525665 59.3866746,154.330403 59.4742517,154.155368 C59.5618288,153.980332 59.6582287,153.803099 59.7634541,153.623664 C59.4361282,153.513775 59.1309504,153.417517 58.8479115,153.334886 C58.5648727,153.252256 58.2994862,153.165226 58.0517442,153.073795 C57.6005472,152.918191 57.2331024,152.722559 56.9493988,152.486894 C56.6656952,152.25123 56.4654088,151.899022 56.3485338,151.430262 C56.2945915,151.213911 56.2515554,150.96612 56.2194243,150.686881 C56.1872932,150.407642 56.183716,150.092564 56.2086928,149.741636 C56.2643129,148.310668 56.7661286,146.902519 57.714155,145.517149 C58.6621815,144.131779 59.7522096,142.902518 60.9842721,141.82933 C61.4154939,141.453714 61.8645236,141.111962 62.3313747,140.804063 C62.7982257,140.496164 63.2430926,140.212898 63.6659889,139.954258 C63.3426517,140.762576 63.0724298,141.595939 62.8553152,142.454372 C62.6382007,143.312805 62.4873529,144.173854 62.4027673,145.037544 L61.6994319,153.945267 C61.5559024,155.474753 61.425528,156.981788 61.3083048,158.466416 L60.9566371,162.920277 C60.881042,163.820026 60.6881553,164.662831 60.3779712,165.448719 C60.0677872,166.234607 59.6890967,167.008841 59.2418884,167.771443 L58.9262136,168.309747 C59.1649652,168.36512 59.4059609,168.429506 59.6492078,168.502908 C59.8924547,168.57631 60.1334503,168.640696 60.372202,168.696068 C60.8054182,168.779556 61.2429569,168.842812 61.6848311,168.885841 C62.1267053,168.928869 62.5860549,168.929239 63.0628934,168.88695 C63.5840192,168.871919 64.1336906,168.821044 64.7119242,168.734324 C65.2901579,168.647604 65.8616402,168.533842 66.4263883,168.393035 L66.9558369,168.261029 C67.1323207,168.217026 67.3043067,168.154996 67.4718001,168.074935 C68.7597992,167.6772 69.9919224,167.130626 71.1682065,166.435195 C72.3444906,165.739764 73.3323734,164.890241 74.1318844,163.8866 C75.5920304,164.480046 77.1701991,164.795104 78.8664376,164.831784 C80.5626762,164.868465 82.222596,164.684397 83.8462467,164.279575 L84.4286402,164.134368 C86.1491908,163.667087 87.7650773,163.00568 89.2763482,162.150127 C90.7876191,161.294575 92.1018257,160.325391 93.2190075,159.242546 C94.3624957,158.114841 95.2755441,156.814808 95.9581801,155.342407 C96.6408161,153.870006 96.7930014,152.300084 96.4147404,150.632594 C95.9915275,148.784812 95.0844936,147.402384 93.6936114,146.485269 C92.3027293,145.568154 90.6571338,144.982662 88.7567755,144.728774 C88.985872,144.595054 89.2215416,144.450121 89.4637913,144.293971 C89.706041,144.137822 89.9548635,143.97046 90.2102664,143.791881 C91.5135872,142.854126 92.6347488,141.674552 93.5737849,140.253123 C94.5128209,138.831694 94.771061,137.273629 94.3485129,135.578882 Z" id="Combined-Shape"></path>
                <path d="M63.3926099,110.424971 C63.3598899,109.374119 63.1717527,108.619889 62.8281927,108.162259 C62.4846327,107.70463 62.0510992,107.475819 61.5275792,107.475819 C61.2003792,107.475819 60.8404646,107.569038 60.4478246,107.75548 C60.0551846,107.941921 59.6625505,108.204631 59.2699105,108.543615 C59.1063105,108.679209 58.9508928,108.83175 58.8036528,109.001243 C58.6564128,109.170735 58.5009952,109.340225 58.3373952,109.509717 C57.5848352,110.424976 56.9795242,111.467338 56.5214442,112.636836 C56.0633642,113.806333 55.7361691,115.001236 55.5398491,116.221581 C55.5071291,116.628363 55.4744096,117.026664 55.4416896,117.416497 C55.4089696,117.806329 55.3926099,118.187681 55.3926099,118.560565 C55.3926099,118.763955 55.4007898,119.01819 55.4171498,119.323276 C55.4335098,119.628363 55.4744091,119.933444 55.5398491,120.238531 C55.6380091,120.814805 55.8097866,121.331749 56.0551866,121.789378 C56.3005866,122.247008 56.6850408,122.475819 57.2085608,122.475819 C58.0265608,122.475819 58.7545699,122.179212 59.3926099,121.585988 C60.0306499,120.992765 60.5459822,120.32328 60.9386222,119.577514 C61.0367822,119.408021 61.1349407,119.247006 61.2331007,119.094463 C61.3312607,118.94192 61.4130595,118.780904 61.4784995,118.611412 C60.9549795,118.238529 60.5541655,117.772432 60.2760455,117.213107 C59.9979255,116.653782 59.8588676,116.052093 59.8588676,115.408022 L59.8588676,115.05209 C59.9570276,114.035136 60.325122,113.077518 60.963162,112.179209 C61.601202,111.280899 62.4110099,110.696159 63.3926099,110.424971 Z" id="Path"></path>
                <path d="M181.768688,79.7103354 L181.768688,79.4674204 C181.768688,79.3702539 181.752228,79.2892831 181.719306,79.2245054 C181.686384,78.9977836 181.61231,78.7791623 181.497084,78.568635 C181.381857,78.3581076 181.192558,78.204263 180.929182,78.1070965 C180.89626,78.0747077 180.846878,78.0504164 180.781034,78.034222 C180.71519,78.0180276 180.665808,78.0099305 180.632886,78.0099305 C180.567042,77.9775417 180.509429,77.9613475 180.460047,77.9613475 L180.287207,77.9613475 C179.990909,77.9613475 179.678155,78.0423184 179.348935,78.2042625 C179.019716,78.3662066 178.690501,78.5767308 178.361281,78.8358414 C177.702842,79.4188403 177.052642,80.1799663 176.410664,81.1192423 C175.768685,82.0585182 175.233711,83.0301684 174.805726,84.034222 C174.476506,84.7467762 174.221364,85.4512226 174.040293,86.1475823 C173.859223,86.8439421 173.768688,87.4674176 173.768688,88.0180277 C173.768688,88.2447495 173.79338,88.4714678 173.842763,88.6981896 C173.892146,88.9249114 173.949758,89.1192414 174.015602,89.2811856 C174.14729,89.5079074 174.287206,89.6779461 174.435355,89.791307 C174.583504,89.9046679 174.772803,89.9613475 175.003256,89.9613475 C176.353057,89.9613475 177.447697,89.3783574 178.287207,88.2123597 C179.126717,87.0463619 179.793377,85.7508283 180.287207,84.32572 C180.616427,83.4512217 180.896259,82.6010278 181.126713,81.7751127 C181.357167,80.9491976 181.571157,80.2609454 181.768688,79.7103354 Z" id="Path"></path>
                <path d="M116.031516,144.12417 C115.994706,143.00326 115.783051,142.198748 115.396546,141.71061 C115.010041,141.222472 114.522316,140.978407 113.933356,140.978407 C113.565256,140.978407 113.160352,141.077841 112.718632,141.276712 C112.276912,141.475583 111.835199,141.755806 111.393479,142.11739 C111.209429,142.262023 111.034584,142.424734 110.868939,142.605525 C110.703294,142.786317 110.528449,142.967107 110.344399,143.147898 C109.497769,144.124174 108.816794,145.236028 108.301454,146.483492 C107.786114,147.730955 107.41802,149.005519 107.19716,150.30722 C107.16035,150.741121 107.12354,151.165975 107.08673,151.581797 C107.04992,151.997618 107.031516,152.404394 107.031516,152.802136 C107.031516,153.019086 107.040718,153.29027 107.059123,153.615695 C107.077528,153.94112 107.12354,154.266541 107.19716,154.591966 C107.30759,155.206659 107.500839,155.758065 107.776914,156.246203 C108.052989,156.734341 108.4855,156.978407 109.07446,156.978407 C109.99471,156.978407 110.813721,156.662026 111.531516,156.029254 C112.249311,155.396483 112.829059,154.682366 113.270779,153.886881 C113.381209,153.70609 113.491638,153.53434 113.602068,153.371627 C113.712498,153.208915 113.804521,153.037165 113.878141,152.856373 C113.289181,152.458631 112.838266,151.961461 112.525381,151.364848 C112.212496,150.768234 112.056056,150.126433 112.056056,149.439424 L112.056056,149.059763 C112.166486,147.975012 112.580592,146.953553 113.298387,145.995356 C114.016182,145.037159 114.927216,144.413437 116.031516,144.12417 Z" id="Path"></path>
                <path d="M83.1008695,154.487595 C83.1008695,153.02981 82.6378158,151.865377 81.7116943,150.994262 C80.7855728,150.123146 79.5287125,149.687595 77.9410757,149.687595 C77.7898722,149.687595 77.6292209,149.696484 77.459117,149.714262 C77.289013,149.73204 77.1283617,149.740928 76.9771582,149.740928 C76.7881538,149.776484 76.6180524,149.812039 76.4668489,149.847595 C76.3156454,149.883151 76.145544,149.918706 75.9565396,149.954262 L72.1008695,160.567595 C72.5922809,160.958708 73.1214853,161.24315 73.6884984,161.420928 C74.2555116,161.598707 74.8414163,161.687595 75.4462304,161.687595 C76.3534514,161.687595 77.2417587,161.518708 78.1111788,161.180928 C78.980599,160.843149 79.7366052,160.407598 80.3792201,159.874262 C81.2486402,159.163147 81.9195957,158.345377 82.3921067,157.420928 C82.8646176,156.496479 83.1008695,155.518711 83.1008695,154.487595 Z" id="Path"></path>
                <path d="M85.0492854,139.179891 C85.0492854,138.198068 84.7101222,137.561711 84.0317854,137.270801 C83.3534487,136.97989 82.5742898,136.834437 81.6942854,136.834437 C80.2276114,136.834437 78.9534575,137.325341 77.8717854,138.307164 C76.7901134,139.288987 76.0109545,140.452612 75.5342854,141.798073 C75.4242849,142.125348 75.3051194,142.461708 75.1767854,142.807164 C75.0484515,143.15262 74.929286,143.488981 74.8192854,143.816255 C74.672618,144.143529 74.5351194,144.47989 74.4067854,144.825346 C74.2784515,145.170802 74.159286,145.507163 74.0492854,145.834437 L78.2292854,145.834437 C79.9526274,145.834437 81.5201117,145.152626 82.9317854,143.788982 C84.3434592,142.425339 85.0492854,140.888991 85.0492854,139.179891 Z" id="Path"></path>
                <path d="M206.259014,126.378776 C206.333088,126.227014 206.416421,126.008859 206.509014,125.724305 C206.601607,125.43975 206.703458,125.107775 206.814569,124.72837 C206.925681,124.424845 207.027532,124.11184 207.120125,123.789345 C207.212718,123.46685 207.277532,123.134875 207.314569,122.79341 C207.388644,122.527826 207.434939,122.271731 207.453458,122.025118 C207.471977,121.778504 207.481236,121.541379 207.481236,121.313735 C207.481236,120.706686 207.370126,120.203981 207.147903,119.805605 C206.925679,119.407229 206.499758,119.208044 205.870125,119.208044 C205.759013,119.208044 205.657162,119.217529 205.564569,119.2365 C205.471976,119.25547 205.370125,119.283925 205.259014,119.321866 C204.518269,119.511568 203.796054,119.995303 203.092347,120.773085 C202.38864,121.550867 201.740498,122.395032 201.147903,123.305605 C200.77753,123.950595 200.434941,124.576605 200.120125,125.183654 C199.805308,125.790703 199.573829,126.283923 199.42568,126.663329 C199.388643,126.777151 199.333088,126.938396 199.259014,127.147069 C199.184939,127.355742 199.110866,127.592867 199.036791,127.858451 C198.92568,128.161975 198.833088,128.49395 198.759014,128.854386 C198.684939,129.214821 198.610866,129.584736 198.536791,129.964142 C198.536791,130.153845 198.527532,130.343545 198.509014,130.533248 C198.490495,130.72295 198.481236,130.91265 198.481236,131.102353 C198.481236,131.671462 198.592346,132.164682 198.814569,132.582028 C199.036793,132.999374 199.407159,133.208044 199.92568,133.208044 C201.110871,133.208044 202.120121,132.762249 202.953458,131.870646 C203.786796,130.979043 204.481233,130.002088 205.036791,128.939752 C205.296052,128.484465 205.527531,128.03867 205.731236,127.602353 C205.934941,127.166037 206.110865,126.758182 206.259014,126.378776 Z" id="Path"></path>
                <path d="M145.382309,136.147046 C145.382309,135.699043 145.317893,135.34438 145.189058,135.083046 C145.060223,134.821711 144.73814,134.691046 144.2228,134.691046 C144.03875,134.691046 143.854703,134.709712 143.670653,134.747046 C143.486603,134.784379 143.302556,134.840379 143.118506,134.915046 C142.419116,135.213714 141.719736,135.736375 141.020346,136.483046 C140.320956,137.229716 139.695196,138.032375 139.143046,138.891046 C138.738136,139.488382 138.379243,140.076376 138.066358,140.655046 C137.753473,141.233715 137.523414,141.728377 137.376174,142.139046 C137.339364,142.251046 137.274948,142.437711 137.182923,142.699046 C137.090898,142.96038 137.008077,143.259044 136.934457,143.595046 C136.860837,143.85638 136.787218,144.127044 136.713598,144.407046 C136.639978,144.687047 136.584764,144.976378 136.547954,145.275046 C136.474334,145.499047 136.428322,145.741711 136.409917,146.003046 C136.391512,146.26438 136.382309,146.507045 136.382309,146.731046 C136.382309,147.291049 136.474333,147.757711 136.658383,148.131046 C136.842433,148.504381 137.173718,148.691046 137.652248,148.691046 C138.719738,148.691046 139.667581,148.24305 140.495806,147.347046 C141.324031,146.451041 142.032613,145.461718 142.621573,144.379046 C142.952863,143.819043 143.228934,143.277715 143.449794,142.755046 C143.670654,142.232376 143.873106,141.765714 144.057156,141.355046 C144.498876,140.197707 144.830161,139.189717 145.051021,138.331046 C145.271881,137.472375 145.382309,136.744382 145.382309,136.147046 Z" id="Path"></path>
            </g>
        </g>
    </g>
</svg>