<?xml version="1.0" encoding="UTF-8"?>
<svg width="25px" height="26px" viewBox="0 0 25 26" version="1.1" xmlns="http://www.w3.org/2000/svg" xmlns:xlink="http://www.w3.org/1999/xlink">
    <!-- Generator: sketchtool 49.3 (51167) - http://www.bohemiancoding.com/sketch -->
    <title>E9EEE171-54CF-48DF-A38F-B48D8B418F22</title>
    <desc>Created with sketchtool.</desc>
    <defs></defs>
    <g id="ChoppingBoard-Prototype" stroke="none" stroke-width="1" fill="none" fill-rule="evenodd">
        <g id="HomeTabScreen" transform="translate(-33.000000, -624.000000)" fill="#E36488">
            <g id="bottom_nav" transform="translate(-1.000000, 617.000000)">
                <g id="icon-items-active" transform="translate(34.000000, 7.860000)">
                    <path d="M9.05882353,0 L1.94117647,0 C0.869094309,0 0,0.851712423 0,1.90235294 L0,8.87764706 C0,9.92828758 0.869094309,10.78 1.94117647,10.78 L9.05882353,10.78 C10.1309057,10.78 11,9.92828758 11,8.87764706 L11,1.90235294 C11,0.851712423 10.1309057,0 9.05882353,0 Z M9.05882353,8.87764706 L1.94117647,8.87764706 L1.94117647,1.90235294 L9.05882353,1.90235294 L9.05882353,8.87764706 Z" id="Shape"></path>
                    <path d="M23.0588235,0 L15.9411765,0 C14.8690943,0 14,0.851712423 14,1.90235294 L14,8.87764706 C14,9.92828758 14.8690943,10.78 15.9411765,10.78 L23.0588235,10.78 C24.1309057,10.78 25,9.92828758 25,8.87764706 L25,1.90235294 C25,0.851712423 24.1309057,0 23.0588235,0 Z M23.0588235,8.87764706 L15.9411765,8.87764706 L15.9411765,1.90235294 L23.0588235,1.90235294 L23.0588235,8.87764706 Z" id="Shape"></path>
                    <path d="M9.05882353,13.72 L1.94117647,13.72 C0.869094309,13.72 0,14.5717124 0,15.6223529 L0,22.5976471 C0,23.6482876 0.869094309,24.5 1.94117647,24.5 L9.05882353,24.5 C10.1309057,24.5 11,23.6482876 11,22.5976471 L11,15.6223529 C11,14.5717124 10.1309057,13.72 9.05882353,13.72 Z M9.05882353,22.5976471 L1.94117647,22.5976471 L1.94117647,15.6223529 L9.05882353,15.6223529 L9.05882353,22.5976471 Z" id="Shape"></path>
                    <path d="M23.0588235,13.72 L15.9411765,13.72 C14.8690943,13.72 14,14.5717124 14,15.6223529 L14,22.5976471 C14,23.6482876 14.8690943,24.5 15.9411765,24.5 L23.0588235,24.5 C24.1309057,24.5 25,23.6482876 25,22.5976471 L25,15.6223529 C25,14.5717124 24.1309057,13.72 23.0588235,13.72 Z M23.0588235,22.5976471 L15.9411765,22.5976471 L15.9411765,15.6223529 L23.0588235,15.6223529 L23.0588235,22.5976471 Z" id="Shape"></path>
                </g>
            </g>
        </g>
    </g>
</svg>