<?xml version="1.0" encoding="UTF-8"?>
<svg width="24px" height="23px" viewBox="0 0 24 23" version="1.1" xmlns="http://www.w3.org/2000/svg" xmlns:xlink="http://www.w3.org/1999/xlink">
    <!-- Generator: sketchtool 49.3 (51167) - http://www.bohemiancoding.com/sketch -->
    <title>BBD64CED-70FB-45F5-9075-ABAEF2961A82</title>
    <desc>Created with sketchtool.</desc>
    <defs></defs>
    <g id="ChoppingBoard-Prototype" stroke="none" stroke-width="1" fill="none" fill-rule="evenodd">
        <g id="HomeTabScreen" transform="translate(-222.000000, -626.000000)" fill="#000000" fill-rule="nonzero" stroke="#979797">
            <g id="bottom_nav" transform="translate(-1.000000, 617.000000)">
                <g id="icon_save" transform="translate(224.000000, 9.820000)">
                    <path d="M21.6108444,12.7402195 C21.3957333,12.7402195 21.2216889,12.8965239 21.2216889,13.0899286 L21.2216889,19.0933768 C21.2216889,20.0676447 20.3387556,20.8612405 19.2526889,20.8612405 L2.74706667,20.8612405 C1.66148889,20.8612405 0.778066667,20.0678642 0.778066667,19.0933768 L0.778066667,13.089709 C0.778066667,12.8963044 0.603777778,12.74 0.388911111,12.74 C0.174044444,12.74 0,12.8965239 0,13.089709 L0,19.0931573 C0,20.4531369 1.23248889,21.56 2.74706667,21.56 L19.2526889,21.56 C20.7675111,21.56 22,20.4531369 22,19.0931573 L22,13.089709 C22,12.8965239 21.8259556,12.7402195 21.6108444,12.7402195 Z" id="Shape"></path>
                    <path d="M10.6910608,15.3519618 C11.1369147,15.789096 11.8628302,15.7895961 12.3089392,15.3519618 L18.8812034,8.90773394 C19.0395989,8.75243628 19.0395989,8.50060899 18.8812034,8.34531133 C18.7228079,8.18976359 18.4654472,8.18976359 18.3070517,8.34531133 L11.9059362,14.6212375 L11.9059362,0.398372268 C11.9059362,0.178054648 11.7243298,0 11.4998725,0 C11.2756702,0 11.0938087,0.178054648 11.0938087,0.398372268 L11.0938087,14.6214876 L4.69269323,8.3455614 C4.53455283,8.19001366 4.27719207,8.19001366 4.1187966,8.3455614 C3.96040113,8.50085907 3.96040113,8.75268636 4.1187966,8.90798402 L10.6910608,15.3519618 Z" id="Shape"></path>
                </g>
            </g>
        </g>
    </g>
</svg>